# xmcd CD database generated by RipIT
#
# Track frame offsets:
# 150
# 17043
# 32388
# 48883
# 64111
# 81051
# 100971
# 116979
# 136055
# 152546
# 165119
# 187852
# 194351
#
# Disc length: 2778 seconds
#
# Revision: 2
# Processed by: cddbd v1.5.2PL0 Copyright (c) Steve Scherf et al.
# Submitted via: RipIT 3.9.0 www.suwald.com/ripit/ripit.html on 2017-04-02 at 08:49
#
DISCID=940ad80d
DTITLE=Tinariwen - Elwan (The Elephants)
DYEAR=2017
DGENRE=Blues
TTITLE0=Tiwàyyen (Hill)
TTITLE1=Sastanàqqàm (I Question You)
TTITLE2=Nizzagh Ijbal (I Live In The Mountains)
TTITLE3=Hayati (My Life)
TTITLE4=Ittus (Our Goal)
TTITLE5=Ténéré Tàqqàl (What Has Become Of The Ténéré)
TTITLE6=Imidiwàn N-Àkall-In (Friends From My Own Land)
TTITLE7=Talyat (Girl)
TTITLE8=Assàwt (The Voice of Tamashek Women)
TTITLE9=Arhegh Ad Annàgh (I Want To Tell You)
TTITLE10=Nànnuflày (Fulfilled)
TTITLE11=Intro Flute Fog Edaghàn
TTITLE12=Fog Edaghàn
EXTD=
EXTT0=
EXTT1=
EXTT2=
EXTT3=
EXTT4=
EXTT5=
EXTT6=
EXTT7=
EXTT8=
EXTT9=
EXTT10=
EXTT11=
EXTT12=
PLAYORDER=
